<svg id="visual" viewBox="0 0 540 960" width="540" height="960" xmlns="http://www.w3.org/2000/svg" xmlns:xlink="http://www.w3.org/1999/xlink" version="1.1"><path d="M0 126L18 118C36 110 72 94 108 94C144 94 180 110 216 108.3C252 106.7 288 87.3 324 85.7C360 84 396 100 432 111.2C468 122.3 504 128.7 522 131.8L540 135L540 0L522 0C504 0 468 0 432 0C396 0 360 0 324 0C288 0 252 0 216 0C180 0 144 0 108 0C72 0 36 0 18 0L0 0Z" fill="#0066ff"></path><path d="M0 318L18 319.5C36 321 72 324 108 319.2C144 314.3 180 301.7 216 284.2C252 266.7 288 244.3 324 242.7C360 241 396 260 432 282.3C468 304.7 504 330.3 522 343.2L540 356L540 133L522 129.8C504 126.7 468 120.3 432 109.2C396 98 360 82 324 83.7C288 85.3 252 104.7 216 106.3C180 108 144 92 108 92C72 92 36 108 18 116L0 124Z" fill="#176dfe"></path><path d="M0 414L18 415.5C36 417 72 420 108 424.8C144 429.7 180 436.3 216 430C252 423.7 288 404.3 324 402.7C360 401 396 417 432 425C468 433 504 433 522 433L540 433L540 354L522 341.2C504 328.3 468 302.7 432 280.3C396 258 360 239 324 240.7C288 242.3 252 264.7 216 282.2C180 299.7 144 312.3 108 317.2C72 322 36 319 18 317.5L0 316Z" fill="#2774fe"></path><path d="M0 750L18 732.3C36 714.7 72 679.3 108 666.5C144 653.7 180 663.3 216 669.8C252 676.3 288 679.7 324 695.7C360 711.7 396 740.3 432 749.8C468 759.3 504 749.7 522 744.8L540 740L540 431L522 431C504 431 468 431 432 423C396 415 360 399 324 400.7C288 402.3 252 421.7 216 428C180 434.3 144 427.7 108 422.8C72 418 36 415 18 413.5L0 412Z" fill="#337afd"></path><path d="M0 894L18 890.8C36 887.7 72 881.3 108 871.7C144 862 180 849 216 842.5C252 836 288 836 324 845.7C360 855.3 396 874.7 432 877.8C468 881 504 868 522 861.5L540 855L540 738L522 742.8C504 747.7 468 757.3 432 747.8C396 738.3 360 709.7 324 693.7C288 677.7 252 674.3 216 667.8C180 661.3 144 651.7 108 664.5C72 677.3 36 712.7 18 730.3L0 748Z" fill="#3e81fb"></path><path d="M0 961L18 961C36 961 72 961 108 961C144 961 180 961 216 961C252 961 288 961 324 961C360 961 396 961 432 961C468 961 504 961 522 961L540 961L540 853L522 859.5C504 866 468 879 432 875.8C396 872.7 360 853.3 324 843.7C288 834 252 834 216 840.5C180 847 144 860 108 869.7C72 879.3 36 885.7 18 888.8L0 892Z" fill="#4987fa"></path></svg>