<svg id="visual" viewBox="0 0 540 960" width="540" height="960" xmlns="http://www.w3.org/2000/svg" xmlns:xlink="http://www.w3.org/1999/xlink" version="1.1"><path d="M0 68L18 60C36 52 72 36 108 29.7C144 23.3 180 26.7 216 33.2C252 39.7 288 49.3 324 47.7C360 46 396 33 432 34.5C468 36 504 52 522 60L540 68L540 0L522 0C504 0 468 0 432 0C396 0 360 0 324 0C288 0 252 0 216 0C180 0 144 0 108 0C72 0 36 0 18 0L0 0Z" fill="#1260ef"></path><path d="M0 107L18 103.7C36 100.3 72 93.7 108 103.2C144 112.7 180 138.3 216 138.3C252 138.3 288 112.7 324 101.5C360 90.3 396 93.7 432 113C468 132.3 504 167.7 522 185.3L540 203L540 66L522 58C504 50 468 34 432 32.5C396 31 360 44 324 45.7C288 47.3 252 37.7 216 31.2C180 24.7 144 21.3 108 27.7C72 34 36 50 18 58L0 66Z" fill="#125cea"></path><path d="M0 174L18 175.5C36 177 72 180 108 194.3C144 208.7 180 234.3 216 223.2C252 212 288 164 324 154.5C360 145 396 174 432 201.2C468 228.3 504 253.7 522 266.3L540 279L540 201L522 183.3C504 165.7 468 130.3 432 111C396 91.7 360 88.3 324 99.5C288 110.7 252 136.3 216 136.3C180 136.3 144 110.7 108 101.2C72 91.7 36 98.3 18 101.7L0 105Z" fill="#1159e5"></path><path d="M0 212L18 215.2C36 218.3 72 224.7 108 235.8C144 247 180 263 216 255C252 247 288 215 324 205.5C360 196 396 209 432 226.7C468 244.3 504 266.7 522 277.8L540 289L540 277L522 264.3C504 251.7 468 226.3 432 199.2C396 172 360 143 324 152.5C288 162 252 210 216 221.2C180 232.3 144 206.7 108 192.3C72 178 36 175 18 173.5L0 172Z" fill="#1155e0"></path><path d="M0 270L18 270C36 270 72 270 108 281.2C144 292.3 180 314.7 216 308.2C252 301.7 288 266.3 324 252C360 237.7 396 244.3 432 258.8C468 273.3 504 295.7 522 306.8L540 318L540 287L522 275.8C504 264.7 468 242.3 432 224.7C396 207 360 194 324 203.5C288 213 252 245 216 253C180 261 144 245 108 233.8C72 222.7 36 216.3 18 213.2L0 210Z" fill="#1052db"></path><path d="M0 366L18 369.2C36 372.3 72 378.7 108 385C144 391.3 180 397.7 216 378.5C252 359.3 288 314.7 324 293.8C360 273 396 276 432 296.8C468 317.7 504 356.3 522 375.7L540 395L540 316L522 304.8C504 293.7 468 271.3 432 256.8C396 242.3 360 235.7 324 250C288 264.3 252 299.7 216 306.2C180 312.7 144 290.3 108 279.2C72 268 36 268 18 268L0 268Z" fill="#0f4ed6"></path><path d="M0 443L18 447.7C36 452.3 72 461.7 108 463.2C144 464.7 180 458.3 216 429.7C252 401 288 350 324 332.5C360 315 396 331 432 351.7C468 372.3 504 397.7 522 410.3L540 423L540 393L522 373.7C504 354.3 468 315.7 432 294.8C396 274 360 271 324 291.8C288 312.7 252 357.3 216 376.5C180 395.7 144 389.3 108 383C72 376.7 36 370.3 18 367.2L0 364Z" fill="#0e4ad1"></path><path d="M0 750L18 721.2C36 692.3 72 634.7 108 610.7C144 586.7 180 596.3 216 604.3C252 612.3 288 618.7 324 591.5C360 564.3 396 503.7 432 522.8C468 542 504 641 522 690.5L540 740L540 421L522 408.3C504 395.7 468 370.3 432 349.7C396 329 360 313 324 330.5C288 348 252 399 216 427.7C180 456.3 144 462.7 108 461.2C72 459.7 36 450.3 18 445.7L0 441Z" fill="#0d47cc"></path><path d="M0 817L18 821.8C36 826.7 72 836.3 108 826.7C144 817 180 788 216 765.5C252 743 288 727 324 735C360 743 396 775 432 799C468 823 504 839 522 847L540 855L540 738L522 688.5C504 639 468 540 432 520.8C396 501.7 360 562.3 324 589.5C288 616.7 252 610.3 216 602.3C180 594.3 144 584.7 108 608.7C72 632.7 36 690.3 18 719.2L0 748Z" fill="#0c43c8"></path><path d="M0 884L18 884C36 884 72 884 108 864.8C144 845.7 180 807.3 216 781.8C252 756.3 288 743.7 324 753.3C360 763 396 795 432 825.3C468 855.7 504 884.3 522 898.7L540 913L540 853L522 845C504 837 468 821 432 797C396 773 360 741 324 733C288 725 252 741 216 763.5C180 786 144 815 108 824.7C72 834.3 36 824.7 18 819.8L0 815Z" fill="#0b40c3"></path><path d="M0 961L18 961C36 961 72 961 108 961C144 961 180 961 216 961C252 961 288 961 324 961C360 961 396 961 432 961C468 961 504 961 522 961L540 961L540 911L522 896.7C504 882.3 468 853.7 432 823.3C396 793 360 761 324 751.3C288 741.7 252 754.3 216 779.8C180 805.3 144 843.7 108 862.8C72 882 36 882 18 882L0 882Z" fill="#093cbe"></path></svg>