<svg id="visual" viewBox="0 0 540 960" width="540" height="960" xmlns="http://www.w3.org/2000/svg" xmlns:xlink="http://www.w3.org/1999/xlink" version="1.1"><path d="M0 78L18 86C36 94 72 110 108 121.2C144 132.3 180 138.7 216 138.7C252 138.7 288 132.3 324 122.7C360 113 396 100 432 101.5C468 103 504 119 522 127L540 135L540 0L522 0C504 0 468 0 432 0C396 0 360 0 324 0C288 0 252 0 216 0C180 0 144 0 108 0C72 0 36 0 18 0L0 0Z" fill="#021d32"></path><path d="M0 212L18 218.5C36 225 72 238 108 247.7C144 257.3 180 263.7 216 262C252 260.3 288 250.7 324 247.5C360 244.3 396 247.7 432 246C468 244.3 504 237.7 522 234.3L540 231L540 133L522 125C504 117 468 101 432 99.5C396 98 360 111 324 120.7C288 130.3 252 136.7 216 136.7C180 136.7 144 130.3 108 119.2C72 108 36 92 18 84L0 76Z" fill="#00284c"></path><path d="M0 433L18 441C36 449 72 465 108 460.2C144 455.3 180 429.7 216 428C252 426.3 288 448.7 324 463.2C360 477.7 396 484.3 432 497.2C468 510 504 529 522 538.5L540 548L540 229L522 232.3C504 235.7 468 242.3 432 244C396 245.7 360 242.3 324 245.5C288 248.7 252 258.3 216 260C180 261.7 144 255.3 108 245.7C72 236 36 223 18 216.5L0 210Z" fill="#003267"></path><path d="M0 683L18 695.7C36 708.3 72 733.7 108 735.2C144 736.7 180 714.3 216 714.3C252 714.3 288 736.7 324 738.3C360 740 396 721 432 717.8C468 714.7 504 727.3 522 733.7L540 740L540 546L522 536.5C504 527 468 508 432 495.2C396 482.3 360 475.7 324 461.2C288 446.7 252 424.3 216 426C180 427.7 144 453.3 108 458.2C72 463 36 447 18 439L0 431Z" fill="#003a81"></path><path d="M0 865L18 865C36 865 72 865 108 871.3C144 877.7 180 890.3 216 893.5C252 896.7 288 890.3 324 888.8C360 887.3 396 890.7 432 882.7C468 874.7 504 855.3 522 845.7L540 836L540 738L522 731.7C504 725.3 468 712.7 432 715.8C396 719 360 738 324 736.3C288 734.7 252 712.3 216 712.3C180 712.3 144 734.7 108 733.2C72 731.7 36 706.3 18 693.7L0 681Z" fill="#00429c"></path><path d="M0 961L18 961C36 961 72 961 108 961C144 961 180 961 216 961C252 961 288 961 324 961C360 961 396 961 432 961C468 961 504 961 522 961L540 961L540 834L522 843.7C504 853.3 468 872.7 432 880.7C396 888.7 360 885.3 324 886.8C288 888.3 252 894.7 216 891.5C180 888.3 144 875.7 108 869.3C72 863 36 863 18 863L0 863Z" fill="#0049b7"></path></svg>