<svg id="visual" viewBox="0 0 540 960" width="540" height="960" xmlns="http://www.w3.org/2000/svg" xmlns:xlink="http://www.w3.org/1999/xlink" version="1.1"><rect x="0" y="0" width="540" height="960" fill="#00223d"></rect><defs><linearGradient id="grad1_0" x1="0%" y1="0%" x2="100%" y2="100%"><stop offset="30%" stop-color="#3c42fa" stop-opacity="1"></stop><stop offset="70%" stop-color="#3c42fa" stop-opacity="1"></stop></linearGradient></defs><defs><linearGradient id="grad1_1" x1="0%" y1="0%" x2="100%" y2="100%"><stop offset="30%" stop-color="#3c42fa" stop-opacity="1"></stop><stop offset="70%" stop-color="#0042bf" stop-opacity="1"></stop></linearGradient></defs><defs><linearGradient id="grad1_2" x1="0%" y1="0%" x2="100%" y2="100%"><stop offset="30%" stop-color="#00357e" stop-opacity="1"></stop><stop offset="70%" stop-color="#0042bf" stop-opacity="1"></stop></linearGradient></defs><defs><linearGradient id="grad1_3" x1="0%" y1="0%" x2="100%" y2="100%"><stop offset="30%" stop-color="#00357e" stop-opacity="1"></stop><stop offset="70%" stop-color="#00223d" stop-opacity="1"></stop></linearGradient></defs><defs><linearGradient id="grad2_0" x1="0%" y1="0%" x2="100%" y2="100%"><stop offset="30%" stop-color="#3c42fa" stop-opacity="1"></stop><stop offset="70%" stop-color="#3c42fa" stop-opacity="1"></stop></linearGradient></defs><defs><linearGradient id="grad2_1" x1="0%" y1="0%" x2="100%" y2="100%"><stop offset="30%" stop-color="#0042bf" stop-opacity="1"></stop><stop offset="70%" stop-color="#3c42fa" stop-opacity="1"></stop></linearGradient></defs><defs><linearGradient id="grad2_2" x1="0%" y1="0%" x2="100%" y2="100%"><stop offset="30%" stop-color="#0042bf" stop-opacity="1"></stop><stop offset="70%" stop-color="#00357e" stop-opacity="1"></stop></linearGradient></defs><defs><linearGradient id="grad2_3" x1="0%" y1="0%" x2="100%" y2="100%"><stop offset="30%" stop-color="#00223d" stop-opacity="1"></stop><stop offset="70%" stop-color="#00357e" stop-opacity="1"></stop></linearGradient></defs><g transform="translate(540, 0)"><path d="M0 405C-55.2 401 -110.3 397 -155 374.2C-199.7 351.3 -233.8 309.5 -271.5 271.5C-309.2 233.5 -350.4 199.2 -373.2 154.6C-396.1 110 -400.5 55 -405 0L0 0Z" fill="#002c5d"></path><path d="M0 303.8C-41.4 300.8 -82.7 297.8 -116.2 280.6C-149.7 263.5 -175.4 232.2 -203.6 203.6C-231.9 175.1 -262.8 149.4 -279.9 116C-297.1 82.5 -300.4 41.2 -303.7 0L0 0Z" fill="#003d9f"></path><path d="M0 202.5C-27.6 200.5 -55.2 198.5 -77.5 187.1C-99.8 175.7 -116.9 154.8 -135.8 135.8C-154.6 116.8 -175.2 99.6 -186.6 77.3C-198 55 -200.3 27.5 -202.5 0L0 0Z" fill="#0045de"></path><path d="M0 101.3C-13.8 100.3 -27.6 99.3 -38.7 93.5C-49.9 87.8 -58.5 77.4 -67.9 67.9C-77.3 58.4 -87.6 49.8 -93.3 38.7C-99 27.5 -100.1 13.7 -101.2 0L0 0Z" fill="#3c42fa"></path></g><g transform="translate(0, 960)"><path d="M0 -405C49.2 -392.4 98.4 -379.8 150.4 -363.1C202.3 -346.4 257 -325.5 286.4 -286.4C315.7 -247.2 319.8 -189.7 335.4 -138.9C350.9 -88.1 378 -44.1 405 0L0 0Z" fill="#002c5d"></path><path d="M0 -303.7C36.9 -294.3 73.8 -284.8 112.8 -272.3C151.8 -259.8 192.8 -244.2 214.8 -214.8C236.8 -185.4 239.9 -142.3 251.5 -104.2C263.2 -66.1 283.5 -33 303.8 0L0 0Z" fill="#003d9f"></path><path d="M0 -202.5C24.6 -196.2 49.2 -189.9 75.2 -181.5C101.2 -173.2 128.5 -162.8 143.2 -143.2C157.9 -123.6 159.9 -94.9 167.7 -69.5C175.5 -44.1 189 -22 202.5 0L0 0Z" fill="#0045de"></path><path d="M0 -101.2C12.3 -98.1 24.6 -94.9 37.6 -90.8C50.6 -86.6 64.3 -81.4 71.6 -71.6C78.9 -61.8 80 -47.4 83.8 -34.7C87.7 -22 94.5 -11 101.3 0L0 0Z" fill="#3c42fa"></path></g></svg>