<svg id="visual" viewBox="0 0 540 960" width="540" height="960" xmlns="http://www.w3.org/2000/svg" xmlns:xlink="http://www.w3.org/1999/xlink" version="1.1"><g stroke-width="1" stroke-linejoin="bevel"><path d="M286 493.6L219 447.4L212 531.6Z" fill="#0066ff" stroke="#0066ff"></path><path d="M286 493.6L250 401.4L219 447.4Z" fill="#0066ff" stroke="#0066ff"></path><path d="M212 531.6L280 594.9L286 493.6Z" fill="#0959eb" stroke="#0959eb"></path><path d="M250 401.4L174 376.1L219 447.4Z" fill="#0959eb" stroke="#0959eb"></path><path d="M219 447.4L128 418.4L212 531.6Z" fill="#0b49d1" stroke="#0b49d1"></path><path d="M174 376.1L128 418.4L219 447.4Z" fill="#0a55e5" stroke="#0a55e5"></path><path d="M382 442.4L288 358.1L250 401.4Z" fill="#0b4dd8" stroke="#0b4dd8"></path><path d="M250 401.4L288 358.1L174 376.1Z" fill="#0b51de" stroke="#0b51de"></path><path d="M338 600.9L374 537.6L286 493.6Z" fill="#0b49d1" stroke="#0b49d1"></path><path d="M286 493.6L382 442.4L250 401.4Z" fill="#0462f8" stroke="#0462f8"></path><path d="M280 594.9L338 600.9L286 493.6Z" fill="#0b51de" stroke="#0b51de"></path><path d="M374 537.6L382 442.4L286 493.6Z" fill="#0a55e5" stroke="#0a55e5"></path><path d="M74 561.6L169 629.9L212 531.6Z" fill="#0b49d1" stroke="#0b49d1"></path><path d="M212 531.6L169 629.9L280 594.9Z" fill="#0a55e5" stroke="#0a55e5"></path><path d="M280 594.9L307 658.2L338 600.9Z" fill="#0b49d1" stroke="#0b49d1"></path><path d="M382 442.4L372 374.1L288 358.1Z" fill="#0b4dd8" stroke="#0b4dd8"></path><path d="M128 418.4L74 561.6L212 531.6Z" fill="#093cbe" stroke="#093cbe"></path><path d="M169 629.9L307 658.2L280 594.9Z" fill="#093cbe" stroke="#093cbe"></path><path d="M338 600.9L429 551.6L374 537.6Z" fill="#0b44cb" stroke="#0b44cb"></path><path d="M156 239.8L74 379.1L174 376.1Z" fill="#0a55e5" stroke="#0a55e5"></path><path d="M174 376.1L74 379.1L128 418.4Z" fill="#0462f8" stroke="#0462f8"></path><path d="M128 418.4L0 488.6L74 561.6Z" fill="#0462f8" stroke="#0462f8"></path><path d="M468 589.9L429 551.6L338 600.9Z" fill="#0a40c4" stroke="#0a40c4"></path><path d="M374 537.6L429 551.6L382 442.4Z" fill="#0b4dd8" stroke="#0b4dd8"></path><path d="M382 442.4L449 443.4L372 374.1Z" fill="#0b51de" stroke="#0b51de"></path><path d="M0 488.6L55 576.9L74 561.6Z" fill="#0a55e5" stroke="#0a55e5"></path><path d="M74 561.6L116 668.2L169 629.9Z" fill="#0959eb" stroke="#0959eb"></path><path d="M55 576.9L116 668.2L74 561.6Z" fill="#093cbe" stroke="#093cbe"></path><path d="M169 629.9L146 693.2L307 658.2Z" fill="#065ef2" stroke="#065ef2"></path><path d="M429 551.6L449 443.4L382 442.4Z" fill="#0b44cb" stroke="#0b44cb"></path><path d="M372 374.1L327 288.8L288 358.1Z" fill="#0959eb" stroke="#0959eb"></path><path d="M288 358.1L156 239.8L174 376.1Z" fill="#0462f8" stroke="#0462f8"></path><path d="M436 309.1L327 288.8L372 374.1Z" fill="#0b51de" stroke="#0b51de"></path><path d="M116 668.2L146 693.2L169 629.9Z" fill="#065ef2" stroke="#065ef2"></path><path d="M0 427.4L0 488.6L128 418.4Z" fill="#0066ff" stroke="#0066ff"></path><path d="M74 379.1L0 427.4L128 418.4Z" fill="#0066ff" stroke="#0066ff"></path><path d="M476 689.2L468 589.9L338 600.9Z" fill="#0462f8" stroke="#0462f8"></path><path d="M429 551.6L540 501.6L449 443.4Z" fill="#0959eb" stroke="#0959eb"></path><path d="M347 751.5L353 714.2L265 780.5Z" fill="#0a40c4" stroke="#0a40c4"></path><path d="M307 658.2L353 714.2L338 600.9Z" fill="#0959eb" stroke="#0959eb"></path><path d="M424 276.8L307 249.8L327 288.8Z" fill="#0b51de" stroke="#0b51de"></path><path d="M327 288.8L307 249.8L288 358.1Z" fill="#0b49d1" stroke="#0b49d1"></path><path d="M307 249.8L156 239.8L288 358.1Z" fill="#0066ff" stroke="#0066ff"></path><path d="M74 379.1L0 313.1L0 427.4Z" fill="#0a55e5" stroke="#0a55e5"></path><path d="M449 443.4L436 309.1L372 374.1Z" fill="#0959eb" stroke="#0959eb"></path><path d="M540 379.1L436 309.1L449 443.4Z" fill="#0462f8" stroke="#0462f8"></path><path d="M0 488.6L0 621.9L55 576.9Z" fill="#0a40c4" stroke="#0a40c4"></path><path d="M55 576.9L0 621.9L116 668.2Z" fill="#0b44cb" stroke="#0b44cb"></path><path d="M78 824.5L188 770.5L146 693.2Z" fill="#0462f8" stroke="#0462f8"></path><path d="M265 780.5L353 714.2L307 658.2Z" fill="#065ef2" stroke="#065ef2"></path><path d="M353 714.2L476 689.2L338 600.9Z" fill="#0959eb" stroke="#0959eb"></path><path d="M78 824.5L146 693.2L116 668.2Z" fill="#0959eb" stroke="#0959eb"></path><path d="M146 693.2L188 770.5L307 658.2Z" fill="#0959eb" stroke="#0959eb"></path><path d="M436 309.1L424 276.8L327 288.8Z" fill="#093cbe" stroke="#093cbe"></path><path d="M188 770.5L265 780.5L307 658.2Z" fill="#0b44cb" stroke="#0b44cb"></path><path d="M54 248.8L0 313.1L74 379.1Z" fill="#093cbe" stroke="#093cbe"></path><path d="M540 594.9L540 501.6L468 589.9Z" fill="#0a55e5" stroke="#0a55e5"></path><path d="M468 589.9L540 501.6L429 551.6Z" fill="#0a40c4" stroke="#0a40c4"></path><path d="M436 309.1L540 270.8L424 276.8Z" fill="#0b49d1" stroke="#0b49d1"></path><path d="M156 239.8L54 248.8L74 379.1Z" fill="#0b49d1" stroke="#0b49d1"></path><path d="M540 501.6L540 427.4L449 443.4Z" fill="#0462f8" stroke="#0462f8"></path><path d="M54 248.8L0 293.8L0 313.1Z" fill="#0959eb" stroke="#0959eb"></path><path d="M444 748.5L476 689.2L353 714.2Z" fill="#0a40c4" stroke="#0a40c4"></path><path d="M424 276.8L322 190.5L307 249.8Z" fill="#0b4dd8" stroke="#0b4dd8"></path><path d="M307 249.8L277 165.5L156 239.8Z" fill="#065ef2" stroke="#065ef2"></path><path d="M156 239.8L74 161.5L54 248.8Z" fill="#0b4dd8" stroke="#0b4dd8"></path><path d="M0 621.9L0 697.2L116 668.2Z" fill="#0a55e5" stroke="#0a55e5"></path><path d="M476 689.2L540 594.9L468 589.9Z" fill="#0a40c4" stroke="#0a40c4"></path><path d="M540 427.4L540 379.1L449 443.4Z" fill="#0b4dd8" stroke="#0b4dd8"></path><path d="M322 190.5L277 165.5L307 249.8Z" fill="#0b4dd8" stroke="#0b4dd8"></path><path d="M347 751.5L444 748.5L353 714.2Z" fill="#0b44cb" stroke="#0b44cb"></path><path d="M476 689.2L540 685.2L540 594.9Z" fill="#0a40c4" stroke="#0a40c4"></path><path d="M456 854.7L444 748.5L347 751.5Z" fill="#0a40c4" stroke="#0a40c4"></path><path d="M277 165.5L198 142.5L156 239.8Z" fill="#0959eb" stroke="#0959eb"></path><path d="M540 769.5L540 685.2L476 689.2Z" fill="#0b51de" stroke="#0b51de"></path><path d="M198 142.5L74 161.5L156 239.8Z" fill="#0b44cb" stroke="#0b44cb"></path><path d="M54 248.8L0 135.5L0 293.8Z" fill="#0b49d1" stroke="#0b49d1"></path><path d="M0 779.5L78 824.5L116 668.2Z" fill="#0a40c4" stroke="#0a40c4"></path><path d="M188 770.5L231 862.7L265 780.5Z" fill="#0b49d1" stroke="#0b49d1"></path><path d="M265 780.5L375 886.7L347 751.5Z" fill="#0959eb" stroke="#0959eb"></path><path d="M188 876.7L231 862.7L188 770.5Z" fill="#0a55e5" stroke="#0a55e5"></path><path d="M0 697.2L0 779.5L116 668.2Z" fill="#0959eb" stroke="#0959eb"></path><path d="M277 165.5L303 123.3L198 142.5Z" fill="#065ef2" stroke="#065ef2"></path><path d="M198 142.5L90 119.3L74 161.5Z" fill="#065ef2" stroke="#065ef2"></path><path d="M322 190.5L303 123.3L277 165.5Z" fill="#0b51de" stroke="#0b51de"></path><path d="M391 61.3L303 123.3L322 190.5Z" fill="#065ef2" stroke="#065ef2"></path><path d="M461 174.5L322 190.5L424 276.8Z" fill="#0462f8" stroke="#0462f8"></path><path d="M540 379.1L540 270.8L436 309.1Z" fill="#0066ff" stroke="#0066ff"></path><path d="M540 270.8L461 174.5L424 276.8Z" fill="#0a40c4" stroke="#0a40c4"></path><path d="M78 824.5L188 876.7L188 770.5Z" fill="#0b44cb" stroke="#0b44cb"></path><path d="M181 89.3L90 119.3L198 142.5Z" fill="#0b4dd8" stroke="#0b4dd8"></path><path d="M74 161.5L0 135.5L54 248.8Z" fill="#0b49d1" stroke="#0b49d1"></path><path d="M303 123.3L181 89.3L198 142.5Z" fill="#093cbe" stroke="#093cbe"></path><path d="M456 854.7L540 769.5L444 748.5Z" fill="#0b44cb" stroke="#0b44cb"></path><path d="M444 748.5L540 769.5L476 689.2Z" fill="#0a55e5" stroke="#0a55e5"></path><path d="M375 886.7L265 780.5L231 862.7Z" fill="#0b49d1" stroke="#0b49d1"></path><path d="M301 960L375 886.7L231 862.7Z" fill="#0a55e5" stroke="#0a55e5"></path><path d="M540 270.8L540 197.5L461 174.5Z" fill="#0b51de" stroke="#0b51de"></path><path d="M461 174.5L391 61.3L322 190.5Z" fill="#0b49d1" stroke="#0b49d1"></path><path d="M375 886.7L456 854.7L347 751.5Z" fill="#0462f8" stroke="#0462f8"></path><path d="M0 119.3L74 161.5L90 119.3Z" fill="#093cbe" stroke="#093cbe"></path><path d="M0 119.3L0 135.5L74 161.5Z" fill="#0b51de" stroke="#0b51de"></path><path d="M0 867.7L127 907.7L78 824.5Z" fill="#0b51de" stroke="#0b51de"></path><path d="M78 824.5L127 907.7L188 876.7Z" fill="#0066ff" stroke="#0066ff"></path><path d="M188 876.7L214 960L231 862.7Z" fill="#065ef2" stroke="#065ef2"></path><path d="M74 0L0 119.3L90 119.3Z" fill="#0b4dd8" stroke="#0b4dd8"></path><path d="M0 779.5L0 867.7L78 824.5Z" fill="#0462f8" stroke="#0462f8"></path><path d="M489 99.3L391 61.3L461 174.5Z" fill="#0a55e5" stroke="#0a55e5"></path><path d="M303 123.3L237 0L181 89.3Z" fill="#0a40c4" stroke="#0a40c4"></path><path d="M540 197.5L489 99.3L461 174.5Z" fill="#0b49d1" stroke="#0b49d1"></path><path d="M58 960L214 960L127 907.7Z" fill="#0b49d1" stroke="#0b49d1"></path><path d="M127 907.7L214 960L188 876.7Z" fill="#065ef2" stroke="#065ef2"></path><path d="M375 886.7L445 960L456 854.7Z" fill="#0066ff" stroke="#0066ff"></path><path d="M214 960L301 960L231 862.7Z" fill="#0b51de" stroke="#0b51de"></path><path d="M301 960L348 960L375 886.7Z" fill="#0462f8" stroke="#0462f8"></path><path d="M445 960L540 868.7L456 854.7Z" fill="#093cbe" stroke="#093cbe"></path><path d="M456 854.7L540 868.7L540 769.5Z" fill="#0b51de" stroke="#0b51de"></path><path d="M334 0L237 0L303 123.3Z" fill="#0959eb" stroke="#0959eb"></path><path d="M181 89.3L74 0L90 119.3Z" fill="#0a40c4" stroke="#0a40c4"></path><path d="M334 0L303 123.3L391 61.3Z" fill="#0b4dd8" stroke="#0b4dd8"></path><path d="M237 0L166 0L181 89.3Z" fill="#0462f8" stroke="#0462f8"></path><path d="M540 197.5L540 95.3L489 99.3Z" fill="#0a40c4" stroke="#0a40c4"></path><path d="M489 99.3L411 0L391 61.3Z" fill="#0b51de" stroke="#0b51de"></path><path d="M411 0L334 0L391 61.3Z" fill="#0a40c4" stroke="#0a40c4"></path><path d="M0 867.7L58 960L127 907.7Z" fill="#0a40c4" stroke="#0a40c4"></path><path d="M348 960L445 960L375 886.7Z" fill="#0b4dd8" stroke="#0b4dd8"></path><path d="M166 0L74 0L181 89.3Z" fill="#065ef2" stroke="#065ef2"></path><path d="M540 0L411 0L489 99.3Z" fill="#0462f8" stroke="#0462f8"></path><path d="M0 867.7L0 960L58 960Z" fill="#065ef2" stroke="#065ef2"></path><path d="M74 0L0 0L0 119.3Z" fill="#093cbe" stroke="#093cbe"></path><path d="M445 960L540 960L540 868.7Z" fill="#0a40c4" stroke="#0a40c4"></path><path d="M540 95.3L540 0L489 99.3Z" fill="#0a40c4" stroke="#0a40c4"></path></g></svg>